<?xml version="1.0" encoding="UTF-8" standalone="no"?>
<!-- Uploaded to: SVG Repo, www.svgrepo.com, Generator: SVG Repo Mixer Tools -->

<svg
   height="800px"
   width="800px"
   version="1.1"
   id="Layer_1"
   viewBox="0 0 504.125 504.125"
   xml:space="preserve"
   sodipodi:docname="logo.svg"
   inkscape:export-filename="../Projects/jadeAcademy/logo.png"
   inkscape:export-xdpi="96"
   inkscape:export-ydpi="96"
   inkscape:version="1.3.2 (091e20ef0f, 2023-11-25, custom)"
   xmlns:inkscape="http://www.inkscape.org/namespaces/inkscape"
   xmlns:sodipodi="http://sodipodi.sourceforge.net/DTD/sodipodi-0.dtd"
   xmlns="http://www.w3.org/2000/svg"
   xmlns:svg="http://www.w3.org/2000/svg"><defs
   id="defs6" /><sodipodi:namedview
   id="namedview6"
   pagecolor="#ffffff"
   bordercolor="#000000"
   borderopacity="0.25"
   inkscape:showpageshadow="2"
   inkscape:pageopacity="0.0"
   inkscape:pagecheckerboard="0"
   inkscape:deskcolor="#d1d1d1"
   inkscape:zoom="1.0709885"
   inkscape:cx="694.21845"
   inkscape:cy="518.21283"
   inkscape:window-width="2560"
   inkscape:window-height="1532"
   inkscape:window-x="0"
   inkscape:window-y="32"
   inkscape:window-maximized="1"
   inkscape:current-layer="Layer_1" />
<path
   style="fill:#3A7F0D;"
   d="M339.772,0c0,0,44.536,108.954-146.337,182.138C89.719,221.893,10.059,323.789,105.173,481.193  c7.877-70.357,41.653-225.485,186.888-260.884c0,0-135.176,50.546-147.117,279.347c69.459,9.752,232.361,16.305,280.726-125.062  C489.536,187.817,339.772,0,339.772,0z"
   id="path1" />
<path
   style="fill:#49A010;"
   d="M145.007,498.704c147.456-58.849,254.748-196.71,269.556-361.283C384.418,56.107,339.772,0,339.772,0  s44.536,108.954-146.337,182.138C89.719,221.893,10.059,323.789,105.173,481.193c7.877-70.357,41.653-225.485,186.888-260.884  C292.053,220.31,157.279,270.73,145.007,498.704z"
   id="path2" />


<text
   xml:space="preserve"
   style="font-size:7.56187px;fill:#bc5f17;stroke-width:0.630156;-inkscape-font-specification:'Poppins, Normal';font-family:Poppins;font-weight:normal;font-style:normal;font-stretch:normal;font-variant:normal;font-variant-ligatures:normal;font-variant-caps:normal;font-variant-numeric:normal;font-variant-east-asian:normal"
   x="98.983566"
   y="141.88477"
   id="text6"><tspan
     sodipodi:role="line"
     id="tspan6" /></text><path
   id="text1"
   style="font-size:395.345px;font-family:Poppins;-inkscape-font-specification:'Poppins, Normal';fill:#000000;stroke-width:0.593017"
   transform="scale(0.88500845,1.1299327)"
   d="m 180.47841,112.16613 c -25.56556,0 -48.89184,6.06217 -69.97683,18.18604 -21.084971,11.86031 -37.820715,28.59665 -50.20814,50.20876 -12.123866,21.34855 -18.186076,45.4643 -18.186076,72.34768 0,26.88334 6.06221,51.00021 18.186076,72.34876 12.387425,21.34855 29.123169,38.08489 50.20814,50.20877 21.08499,11.86027 44.41127,17.79064 69.97683,17.79064 24.24771,0 46.25453,-5.403 66.0217,-16.20906 19.76717,-11.06962 35.71314,-25.96139 47.83701,-44.67431 12.12387,-18.97648 19.24001,-39.79859 21.34851,-62.46495 v -27.67337 h -148.2533 v 29.25495 h 109.90498 c -2.8992,27.4105 -13.04572,49.15435 -30.44086,65.23164 -17.3951,16.07729 -39.5347,24.11698 -66.41804,24.11698 -19.24005,0 -36.63552,-4.34943 -52.18571,-13.04698 -15.2866,-8.96111 -27.41103,-21.6117 -36.372149,-37.95258 -8.697558,-16.34085 -13.046079,-35.31838 -13.046079,-56.93049 0,-21.61211 4.348521,-40.58856 13.046079,-56.92941 8.961119,-16.60441 21.085549,-29.25499 36.372149,-37.95258 15.55019,-8.96111 32.94566,-13.44237 52.18571,-13.44237 19.24004,0 36.10855,4.48126 50.60449,13.44237 12.31289,7.38776 22.12776,17.46543 29.49657,30.17755 0.0495,0.0391 0.0981,0.087 0.14741,0.12744 0.0488,0.0224 0.0984,0.0439 0.14603,0.0675 -0.004,-0.003 -0.006,-0.007 -0.01,-0.01 0.007,0.005 0.013,0.009 0.0195,0.0142 l 0.001,0.001 c 0.0692,0.0346 0.13674,0.0712 0.20304,0.10892 -0.1205,-0.31917 -0.3236,-0.60493 -0.54237,-0.88773 0.33913,0.39379 0.54968,0.70648 0.65085,0.952 0.23083,0.14151 0.43902,0.30689 0.62025,0.49887 0.30638,-0.0675 0.61332,-0.13319 0.92202,-0.19388 0.631,-0.12835 1.27475,-0.20625 1.91638,-0.29192 0.39185,-0.0771 0.79043,-0.12984 1.18904,-0.18082 0.4485,-0.0573 0.87417,-0.0884 1.27526,-0.0969 6.01643,-0.12832 6.63394,4.9196 -0.0946,5.77518 -0.079,0.0101 -0.15766,0.0228 -0.23642,0.0338 0.40425,0.30987 0.73385,0.66372 0.93454,1.06637 h 39.66114 c -10.27893,-26.35628 -26.75047,-46.78283 -49.41684,-61.27877 -22.4028,-14.49591 -48.23254,-21.74351 -77.48795,-21.74351 z m 80.71714,76.41165 c -0.0357,-0.0219 -0.0718,-0.0434 -0.10848,-0.0643 0.004,0.0118 0.0111,0.0229 0.0153,0.0349 0.008,0.0227 0.0374,0.0995 0.057,0.15685 0.0162,0.0152 0.0325,0.027 0.0487,0.0425 0.0182,0.0174 0.0346,0.036 0.0529,0.0534 -0.0106,-0.0672 -0.0318,-0.14175 -0.0654,-0.22329 z M 260.77,188.36973 c 0.11051,0.0917 0.22141,0.18446 0.33098,0.28538 -0.0501,-0.0671 -0.10419,-0.13278 -0.16549,-0.19388 -0.0543,-0.0315 -0.1107,-0.0605 -0.16549,-0.0915 z"
   inkscape:export-filename="../src/images/logo.png"
   inkscape:export-xdpi="96"
   inkscape:export-ydpi="96" /><path
   id="text2"
   style="font-size:420.104px;font-family:Poppins;-inkscape-font-specification:'Poppins, Normal';fill:#000000;stroke-width:0.630156"
   d="M 380.05437,144.51624 V 377.25313 L 235.32767,158.18645 c -2.37852,1.39981 -4.79092,2.73789 -7.25049,3.99017 -1.61962,0.86517 -3.3627,1.43114 -5.0831,2.04801 0.64559,-0.22624 -1.3968,0.91881 -2.0357,0.61908 -0.12993,-0.061 -0.25128,-0.13797 -0.38031,-0.20062 1.39033,4.58741 2.74823,9.1842 3.98156,13.81667 1.79715,6.8318 3.26241,13.74377 4.75694,20.64623 0.92743,4.30841 1.90328,8.6077 2.70647,12.94159 0.0799,0.48063 0.0797,0.94652 0.128,1.42154 l 147.90333,224.27901 h 38.22907 V 144.51624 Z m -152.90889,6.7508 c -1.39327,1.78474 -3.6745,3.14674 -6.71879,3.77355 8.40388,0.95347 15.99952,1.66513 7.99141,-2.99939 -0.42859,-0.24965 -0.84835,-0.51614 -1.27262,-0.77416 z m -5.04248,156.5569 c -0.24793,0.0125 -0.49774,-0.007 -0.74585,0.002 0.1071,0.29407 0.21483,0.58807 0.32123,0.88246 l 0.52185,0.0357 c -0.0337,-0.30673 -0.0631,-0.61393 -0.0972,-0.92062 z m 3.56925,69.40581 c -0.0479,-0.01 -0.0952,0.0133 -0.14277,0.0172 -0.13865,1.59585 -0.27593,3.19185 -0.41354,4.78771 -0.005,0.057 -0.008,0.11407 -0.0123,0.17108 0.38567,-0.31094 0.78186,-0.5922 1.19262,-0.82462 v -3.68248 c -0.21175,-0.26106 -0.41983,-0.42822 -0.624,-0.46892 z m -37.60507,52.5442 v 7.97418 h 0.72616 c 0.0521,-2.57626 0.14391,-5.15141 0.22153,-7.7268 -0.31801,-0.0753 -0.64149,-0.13084 -0.94769,-0.24738 z m 34.7029,6.94156 c -0.005,0.34421 -0.009,0.68842 -0.0148,1.03262 h 0.65354 c -0.21373,-0.35167 -0.42829,-0.70448 -0.63877,-1.03262 z" /></svg>
